<mxfile host="Electron" modified="2024-01-24T08:58:25.218Z" agent="Mozilla/5.0 (Windows NT 10.0; Win64; x64) AppleWebKit/537.36 (KHTML, like Gecko) draw.io/22.1.18 Chrome/120.0.6099.199 Electron/28.1.2 Safari/537.36" etag="4LiQ3xf4cWqn9Q8t5D7h" version="22.1.18" type="device">
  <diagram name="第 1 页" id="zdy73bDGHU6fEA5Vpddr">
    <mxGraphModel dx="2261" dy="836" grid="1" gridSize="10" guides="1" tooltips="1" connect="1" arrows="1" fold="1" page="1" pageScale="1" pageWidth="827" pageHeight="1169" math="0" shadow="0">
      <root>
        <mxCell id="0" />
        <mxCell id="1" parent="0" />
        <mxCell id="J-q6yY1MBjcJbUwqOQWw-180" value="2" style="rounded=0;whiteSpace=wrap;html=1;fontSize=16;strokeColor=#FFFFFF;" parent="1" vertex="1">
          <mxGeometry x="100" y="400" width="50" height="60" as="geometry" />
        </mxCell>
        <mxCell id="J-q6yY1MBjcJbUwqOQWw-181" value="1" style="rounded=0;whiteSpace=wrap;html=1;fontSize=16;strokeColor=#FFFFFF;" parent="1" vertex="1">
          <mxGeometry x="20" y="400" width="50" height="60" as="geometry" />
        </mxCell>
        <mxCell id="J-q6yY1MBjcJbUwqOQWw-182" value="3" style="rounded=0;whiteSpace=wrap;html=1;fontSize=16;strokeColor=#FFFFFF;" parent="1" vertex="1">
          <mxGeometry x="180" y="400" width="50" height="60" as="geometry" />
        </mxCell>
        <mxCell id="J-q6yY1MBjcJbUwqOQWw-183" value="5" style="rounded=0;whiteSpace=wrap;html=1;fontSize=16;strokeColor=#FFFFFF;" parent="1" vertex="1">
          <mxGeometry x="340" y="400" width="50" height="60" as="geometry" />
        </mxCell>
        <mxCell id="J-q6yY1MBjcJbUwqOQWw-184" value="7" style="rounded=0;whiteSpace=wrap;html=1;fontSize=16;strokeColor=#FFFFFF;" parent="1" vertex="1">
          <mxGeometry x="500" y="400" width="50" height="60" as="geometry" />
        </mxCell>
        <mxCell id="J-q6yY1MBjcJbUwqOQWw-185" value="8" style="rounded=0;whiteSpace=wrap;html=1;fontSize=16;strokeColor=#FFFFFF;" parent="1" vertex="1">
          <mxGeometry x="580" y="400" width="50" height="60" as="geometry" />
        </mxCell>
        <mxCell id="J-q6yY1MBjcJbUwqOQWw-186" value="9" style="rounded=0;whiteSpace=wrap;html=1;fontSize=16;strokeColor=#FFFFFF;" parent="1" vertex="1">
          <mxGeometry x="660" y="400" width="50" height="60" as="geometry" />
        </mxCell>
        <mxCell id="J-q6yY1MBjcJbUwqOQWw-187" value="12" style="rounded=0;whiteSpace=wrap;html=1;fontSize=16;strokeColor=#FFFFFF;" parent="1" vertex="1">
          <mxGeometry x="900" y="400" width="50" height="60" as="geometry" />
        </mxCell>
        <mxCell id="J-q6yY1MBjcJbUwqOQWw-188" value="13" style="rounded=0;whiteSpace=wrap;html=1;fontSize=16;strokeColor=#FFFFFF;" parent="1" vertex="1">
          <mxGeometry x="980" y="400" width="50" height="60" as="geometry" />
        </mxCell>
        <mxCell id="J-q6yY1MBjcJbUwqOQWw-189" value="15" style="rounded=0;whiteSpace=wrap;html=1;fontSize=16;strokeColor=#FFFFFF;" parent="1" vertex="1">
          <mxGeometry x="1140" y="400" width="50" height="60" as="geometry" />
        </mxCell>
        <mxCell id="J-q6yY1MBjcJbUwqOQWw-190" value="16" style="rounded=0;whiteSpace=wrap;html=1;fontSize=16;strokeColor=#FFFFFF;" parent="1" vertex="1">
          <mxGeometry x="1220" y="400" width="50" height="60" as="geometry" />
        </mxCell>
        <mxCell id="J-q6yY1MBjcJbUwqOQWw-191" value="17" style="rounded=0;whiteSpace=wrap;html=1;fontSize=16;strokeColor=#FFFFFF;" parent="1" vertex="1">
          <mxGeometry x="1300" y="400" width="50" height="60" as="geometry" />
        </mxCell>
        <mxCell id="J-q6yY1MBjcJbUwqOQWw-192" value="19" style="rounded=0;whiteSpace=wrap;html=1;fontSize=16;strokeColor=#FFFFFF;" parent="1" vertex="1">
          <mxGeometry x="1460" y="400" width="50" height="60" as="geometry" />
        </mxCell>
        <mxCell id="J-q6yY1MBjcJbUwqOQWw-193" value="20" style="rounded=0;whiteSpace=wrap;html=1;fontSize=16;strokeColor=#FFFFFF;" parent="1" vertex="1">
          <mxGeometry x="1540" y="400" width="50" height="60" as="geometry" />
        </mxCell>
        <mxCell id="J-q6yY1MBjcJbUwqOQWw-194" value="4" style="rounded=0;whiteSpace=wrap;html=1;fontSize=16;strokeColor=#FFFFFF;" parent="1" vertex="1">
          <mxGeometry x="260" y="400" width="50" height="60" as="geometry" />
        </mxCell>
        <mxCell id="J-q6yY1MBjcJbUwqOQWw-195" value="6" style="rounded=0;whiteSpace=wrap;html=1;fontSize=16;strokeColor=#FFFFFF;" parent="1" vertex="1">
          <mxGeometry x="420" y="400" width="50" height="60" as="geometry" />
        </mxCell>
        <mxCell id="J-q6yY1MBjcJbUwqOQWw-196" value="10" style="rounded=0;whiteSpace=wrap;html=1;fontSize=16;strokeColor=#FFFFFF;" parent="1" vertex="1">
          <mxGeometry x="740" y="400" width="50" height="60" as="geometry" />
        </mxCell>
        <mxCell id="J-q6yY1MBjcJbUwqOQWw-197" value="11" style="rounded=0;whiteSpace=wrap;html=1;fontSize=16;strokeColor=#FFFFFF;" parent="1" vertex="1">
          <mxGeometry x="820" y="400" width="50" height="60" as="geometry" />
        </mxCell>
        <mxCell id="J-q6yY1MBjcJbUwqOQWw-198" value="14" style="rounded=0;whiteSpace=wrap;html=1;fontSize=16;strokeColor=#FFFFFF;" parent="1" vertex="1">
          <mxGeometry x="1060" y="400" width="50" height="60" as="geometry" />
        </mxCell>
        <mxCell id="J-q6yY1MBjcJbUwqOQWw-199" value="18" style="rounded=0;whiteSpace=wrap;html=1;fontSize=16;strokeColor=#FFFFFF;" parent="1" vertex="1">
          <mxGeometry x="1380" y="400" width="50" height="60" as="geometry" />
        </mxCell>
        <mxCell id="J-q6yY1MBjcJbUwqOQWw-49" style="edgeStyle=orthogonalEdgeStyle;rounded=0;orthogonalLoop=1;jettySize=auto;html=1;exitX=1;exitY=0.5;exitDx=0;exitDy=0;entryX=0;entryY=0.5;entryDx=0;entryDy=0;fontSize=16;" parent="1" source="J-q6yY1MBjcJbUwqOQWw-10" target="J-q6yY1MBjcJbUwqOQWw-17" edge="1">
          <mxGeometry relative="1" as="geometry" />
        </mxCell>
        <mxCell id="J-q6yY1MBjcJbUwqOQWw-50" style="edgeStyle=orthogonalEdgeStyle;rounded=0;orthogonalLoop=1;jettySize=auto;html=1;exitX=1;exitY=0.5;exitDx=0;exitDy=0;entryX=0;entryY=0.5;entryDx=0;entryDy=0;fontSize=16;" parent="1" source="J-q6yY1MBjcJbUwqOQWw-11" target="J-q6yY1MBjcJbUwqOQWw-18" edge="1">
          <mxGeometry relative="1" as="geometry" />
        </mxCell>
        <mxCell id="J-q6yY1MBjcJbUwqOQWw-48" style="edgeStyle=orthogonalEdgeStyle;rounded=0;orthogonalLoop=1;jettySize=auto;html=1;exitX=1;exitY=0.5;exitDx=0;exitDy=0;entryX=0;entryY=0.5;entryDx=0;entryDy=0;fontSize=16;" parent="1" source="J-q6yY1MBjcJbUwqOQWw-12" target="J-q6yY1MBjcJbUwqOQWw-10" edge="1">
          <mxGeometry relative="1" as="geometry" />
        </mxCell>
        <mxCell id="J-q6yY1MBjcJbUwqOQWw-12" value="" style="rounded=0;whiteSpace=wrap;html=1;fontSize=16;" parent="1" vertex="1">
          <mxGeometry x="180" y="280" width="50" height="60" as="geometry" />
        </mxCell>
        <mxCell id="J-q6yY1MBjcJbUwqOQWw-55" style="edgeStyle=orthogonalEdgeStyle;rounded=0;orthogonalLoop=1;jettySize=auto;html=1;exitX=1;exitY=0.5;exitDx=0;exitDy=0;entryX=0;entryY=0.5;entryDx=0;entryDy=0;fontSize=16;" parent="1" source="J-q6yY1MBjcJbUwqOQWw-13" target="J-q6yY1MBjcJbUwqOQWw-19" edge="1">
          <mxGeometry relative="1" as="geometry" />
        </mxCell>
        <mxCell id="J-q6yY1MBjcJbUwqOQWw-54" style="edgeStyle=orthogonalEdgeStyle;rounded=0;orthogonalLoop=1;jettySize=auto;html=1;exitX=1;exitY=0.5;exitDx=0;exitDy=0;fontSize=16;" parent="1" source="J-q6yY1MBjcJbUwqOQWw-15" target="J-q6yY1MBjcJbUwqOQWw-13" edge="1">
          <mxGeometry relative="1" as="geometry" />
        </mxCell>
        <mxCell id="J-q6yY1MBjcJbUwqOQWw-53" style="edgeStyle=orthogonalEdgeStyle;rounded=0;orthogonalLoop=1;jettySize=auto;html=1;exitX=1;exitY=0.5;exitDx=0;exitDy=0;entryX=0;entryY=0.5;entryDx=0;entryDy=0;fontSize=16;" parent="1" source="J-q6yY1MBjcJbUwqOQWw-16" target="J-q6yY1MBjcJbUwqOQWw-14" edge="1">
          <mxGeometry relative="1" as="geometry" />
        </mxCell>
        <mxCell id="J-q6yY1MBjcJbUwqOQWw-51" style="edgeStyle=orthogonalEdgeStyle;rounded=0;orthogonalLoop=1;jettySize=auto;html=1;exitX=1;exitY=0.5;exitDx=0;exitDy=0;fontSize=16;" parent="1" source="J-q6yY1MBjcJbUwqOQWw-17" target="J-q6yY1MBjcJbUwqOQWw-15" edge="1">
          <mxGeometry relative="1" as="geometry" />
        </mxCell>
        <mxCell id="J-q6yY1MBjcJbUwqOQWw-52" style="edgeStyle=orthogonalEdgeStyle;rounded=0;orthogonalLoop=1;jettySize=auto;html=1;exitX=1;exitY=0.5;exitDx=0;exitDy=0;entryX=0;entryY=0.5;entryDx=0;entryDy=0;fontSize=16;" parent="1" source="J-q6yY1MBjcJbUwqOQWw-18" target="J-q6yY1MBjcJbUwqOQWw-16" edge="1">
          <mxGeometry relative="1" as="geometry" />
        </mxCell>
        <mxCell id="J-q6yY1MBjcJbUwqOQWw-56" style="edgeStyle=orthogonalEdgeStyle;rounded=0;orthogonalLoop=1;jettySize=auto;html=1;exitX=1;exitY=0.5;exitDx=0;exitDy=0;entryX=0;entryY=0.5;entryDx=0;entryDy=0;fontSize=16;" parent="1" source="J-q6yY1MBjcJbUwqOQWw-19" target="J-q6yY1MBjcJbUwqOQWw-21" edge="1">
          <mxGeometry relative="1" as="geometry" />
        </mxCell>
        <mxCell id="J-q6yY1MBjcJbUwqOQWw-19" value="" style="rounded=0;whiteSpace=wrap;html=1;fontSize=16;" parent="1" vertex="1">
          <mxGeometry x="900" y="280" width="50" height="60" as="geometry" />
        </mxCell>
        <mxCell id="J-q6yY1MBjcJbUwqOQWw-58" style="edgeStyle=orthogonalEdgeStyle;rounded=0;orthogonalLoop=1;jettySize=auto;html=1;exitX=1;exitY=0.5;exitDx=0;exitDy=0;entryX=0;entryY=0.5;entryDx=0;entryDy=0;fontSize=16;" parent="1" source="J-q6yY1MBjcJbUwqOQWw-20" target="J-q6yY1MBjcJbUwqOQWw-23" edge="1">
          <mxGeometry relative="1" as="geometry" />
        </mxCell>
        <mxCell id="J-q6yY1MBjcJbUwqOQWw-20" value="" style="rounded=0;whiteSpace=wrap;html=1;fontSize=16;" parent="1" vertex="1">
          <mxGeometry x="1140" y="280" width="50" height="60" as="geometry" />
        </mxCell>
        <mxCell id="J-q6yY1MBjcJbUwqOQWw-57" style="edgeStyle=orthogonalEdgeStyle;rounded=0;orthogonalLoop=1;jettySize=auto;html=1;exitX=1;exitY=0.5;exitDx=0;exitDy=0;entryX=0;entryY=0.5;entryDx=0;entryDy=0;fontSize=16;" parent="1" source="J-q6yY1MBjcJbUwqOQWw-21" target="J-q6yY1MBjcJbUwqOQWw-20" edge="1">
          <mxGeometry relative="1" as="geometry" />
        </mxCell>
        <mxCell id="J-q6yY1MBjcJbUwqOQWw-21" value="" style="rounded=0;whiteSpace=wrap;html=1;fontSize=16;" parent="1" vertex="1">
          <mxGeometry x="980" y="280" width="50" height="60" as="geometry" />
        </mxCell>
        <mxCell id="J-q6yY1MBjcJbUwqOQWw-59" style="edgeStyle=orthogonalEdgeStyle;rounded=0;orthogonalLoop=1;jettySize=auto;html=1;exitX=1;exitY=0.5;exitDx=0;exitDy=0;entryX=0;entryY=0.5;entryDx=0;entryDy=0;fontSize=16;" parent="1" source="J-q6yY1MBjcJbUwqOQWw-23" target="J-q6yY1MBjcJbUwqOQWw-27" edge="1">
          <mxGeometry relative="1" as="geometry" />
        </mxCell>
        <mxCell id="J-q6yY1MBjcJbUwqOQWw-60" style="edgeStyle=orthogonalEdgeStyle;rounded=0;orthogonalLoop=1;jettySize=auto;html=1;exitX=1;exitY=0.5;exitDx=0;exitDy=0;entryX=0;entryY=0.5;entryDx=0;entryDy=0;fontSize=16;" parent="1" source="J-q6yY1MBjcJbUwqOQWw-24" target="J-q6yY1MBjcJbUwqOQWw-28" edge="1">
          <mxGeometry relative="1" as="geometry" />
        </mxCell>
        <mxCell id="J-q6yY1MBjcJbUwqOQWw-61" style="edgeStyle=orthogonalEdgeStyle;rounded=0;orthogonalLoop=1;jettySize=auto;html=1;exitX=1;exitY=0.5;exitDx=0;exitDy=0;fontSize=16;" parent="1" source="J-q6yY1MBjcJbUwqOQWw-27" target="J-q6yY1MBjcJbUwqOQWw-29" edge="1">
          <mxGeometry relative="1" as="geometry" />
        </mxCell>
        <mxCell id="J-q6yY1MBjcJbUwqOQWw-62" style="edgeStyle=orthogonalEdgeStyle;rounded=0;orthogonalLoop=1;jettySize=auto;html=1;exitX=1;exitY=0.5;exitDx=0;exitDy=0;entryX=0;entryY=0.5;entryDx=0;entryDy=0;fontSize=16;" parent="1" source="J-q6yY1MBjcJbUwqOQWw-29" target="J-q6yY1MBjcJbUwqOQWw-30" edge="1">
          <mxGeometry relative="1" as="geometry" />
        </mxCell>
        <mxCell id="J-q6yY1MBjcJbUwqOQWw-29" value="" style="rounded=0;whiteSpace=wrap;html=1;fontSize=16;" parent="1" vertex="1">
          <mxGeometry x="1460" y="280" width="50" height="60" as="geometry" />
        </mxCell>
        <mxCell id="J-q6yY1MBjcJbUwqOQWw-81" style="edgeStyle=orthogonalEdgeStyle;rounded=0;orthogonalLoop=1;jettySize=auto;html=1;exitX=1;exitY=0.5;exitDx=0;exitDy=0;fontSize=16;" parent="1" target="J-q6yY1MBjcJbUwqOQWw-64" edge="1">
          <mxGeometry relative="1" as="geometry">
            <mxPoint x="1630" y="310" as="sourcePoint" />
          </mxGeometry>
        </mxCell>
        <mxCell id="J-q6yY1MBjcJbUwqOQWw-30" value="" style="rounded=0;whiteSpace=wrap;html=1;fontSize=16;" parent="1" vertex="1">
          <mxGeometry x="1540" y="280" width="50" height="60" as="geometry" />
        </mxCell>
        <mxCell id="J-q6yY1MBjcJbUwqOQWw-42" value="" style="endArrow=classic;html=1;rounded=0;exitX=1;exitY=0.5;exitDx=0;exitDy=0;entryX=0;entryY=0.5;entryDx=0;entryDy=0;fontSize=16;" parent="1" source="J-q6yY1MBjcJbUwqOQWw-4" target="J-q6yY1MBjcJbUwqOQWw-8" edge="1">
          <mxGeometry width="50" height="50" relative="1" as="geometry">
            <mxPoint x="210" y="240" as="sourcePoint" />
            <mxPoint x="260" y="190" as="targetPoint" />
          </mxGeometry>
        </mxCell>
        <mxCell id="J-q6yY1MBjcJbUwqOQWw-43" value="" style="endArrow=classic;html=1;rounded=0;exitX=1;exitY=0.5;exitDx=0;exitDy=0;entryX=0;entryY=0.5;entryDx=0;entryDy=0;fontSize=16;" parent="1" source="J-q6yY1MBjcJbUwqOQWw-3" target="J-q6yY1MBjcJbUwqOQWw-7" edge="1">
          <mxGeometry width="50" height="50" relative="1" as="geometry">
            <mxPoint x="40" y="200" as="sourcePoint" />
            <mxPoint x="80" y="200" as="targetPoint" />
          </mxGeometry>
        </mxCell>
        <mxCell id="J-q6yY1MBjcJbUwqOQWw-44" value="" style="endArrow=classic;html=1;rounded=0;exitX=1;exitY=0.5;exitDx=0;exitDy=0;entryX=0;entryY=0.5;entryDx=0;entryDy=0;fontSize=16;" parent="1" source="J-q6yY1MBjcJbUwqOQWw-2" target="J-q6yY1MBjcJbUwqOQWw-6" edge="1">
          <mxGeometry width="50" height="50" relative="1" as="geometry">
            <mxPoint x="40" y="260" as="sourcePoint" />
            <mxPoint x="80" y="260" as="targetPoint" />
          </mxGeometry>
        </mxCell>
        <mxCell id="J-q6yY1MBjcJbUwqOQWw-45" value="" style="endArrow=classic;html=1;rounded=0;exitX=1;exitY=0.5;exitDx=0;exitDy=0;entryX=0;entryY=0.5;entryDx=0;entryDy=0;fontSize=16;" parent="1" source="J-q6yY1MBjcJbUwqOQWw-6" target="J-q6yY1MBjcJbUwqOQWw-12" edge="1">
          <mxGeometry width="50" height="50" relative="1" as="geometry">
            <mxPoint x="40" y="320" as="sourcePoint" />
            <mxPoint x="80" y="320" as="targetPoint" />
          </mxGeometry>
        </mxCell>
        <mxCell id="J-q6yY1MBjcJbUwqOQWw-72" value="" style="group;fontSize=16;" parent="1" vertex="1" connectable="0">
          <mxGeometry x="340" y="220" width="55" height="125" as="geometry" />
        </mxCell>
        <mxCell id="J-q6yY1MBjcJbUwqOQWw-10" value="" style="rounded=0;whiteSpace=wrap;html=1;fontSize=16;" parent="J-q6yY1MBjcJbUwqOQWw-72" vertex="1">
          <mxGeometry y="60" width="50" height="60" as="geometry" />
        </mxCell>
        <mxCell id="J-q6yY1MBjcJbUwqOQWw-11" value="" style="rounded=0;whiteSpace=wrap;html=1;fontSize=16;" parent="J-q6yY1MBjcJbUwqOQWw-72" vertex="1">
          <mxGeometry width="50" height="60" as="geometry" />
        </mxCell>
        <mxCell id="J-q6yY1MBjcJbUwqOQWw-89" value="14&lt;br style=&quot;font-size: 16px;&quot;&gt;——&lt;br style=&quot;font-size: 16px;&quot;&gt;3" style="text;html=1;align=center;verticalAlign=middle;resizable=0;points=[];autosize=1;strokeColor=none;fillColor=none;fontSize=16;" parent="J-q6yY1MBjcJbUwqOQWw-72" vertex="1">
          <mxGeometry x="-5" y="-5" width="60" height="70" as="geometry" />
        </mxCell>
        <mxCell id="J-q6yY1MBjcJbUwqOQWw-90" value="14&lt;br style=&quot;font-size: 16px;&quot;&gt;——&lt;br style=&quot;font-size: 16px;&quot;&gt;2" style="text;html=1;align=center;verticalAlign=middle;resizable=0;points=[];autosize=1;strokeColor=none;fillColor=none;fontSize=16;" parent="J-q6yY1MBjcJbUwqOQWw-72" vertex="1">
          <mxGeometry x="-5" y="55" width="60" height="70" as="geometry" />
        </mxCell>
        <mxCell id="J-q6yY1MBjcJbUwqOQWw-74" value="" style="group;fontSize=16;" parent="1" vertex="1" connectable="0">
          <mxGeometry x="580" y="220" width="55" height="125" as="geometry" />
        </mxCell>
        <mxCell id="J-q6yY1MBjcJbUwqOQWw-15" value="" style="rounded=0;whiteSpace=wrap;html=1;fontSize=16;" parent="J-q6yY1MBjcJbUwqOQWw-74" vertex="1">
          <mxGeometry y="60" width="50" height="60" as="geometry" />
        </mxCell>
        <mxCell id="J-q6yY1MBjcJbUwqOQWw-16" value="" style="rounded=0;whiteSpace=wrap;html=1;fontSize=16;" parent="J-q6yY1MBjcJbUwqOQWw-74" vertex="1">
          <mxGeometry width="50" height="60" as="geometry" />
        </mxCell>
        <mxCell id="J-q6yY1MBjcJbUwqOQWw-93" value="17&lt;br style=&quot;font-size: 16px;&quot;&gt;——&lt;br style=&quot;font-size: 16px;&quot;&gt;1" style="text;html=1;align=center;verticalAlign=middle;resizable=0;points=[];autosize=1;strokeColor=none;fillColor=none;fontSize=16;" parent="J-q6yY1MBjcJbUwqOQWw-74" vertex="1">
          <mxGeometry x="-5" y="-5" width="60" height="70" as="geometry" />
        </mxCell>
        <mxCell id="J-q6yY1MBjcJbUwqOQWw-94" value="17&lt;br style=&quot;font-size: 16px;&quot;&gt;——&lt;br style=&quot;font-size: 16px;&quot;&gt;1" style="text;html=1;align=center;verticalAlign=middle;resizable=0;points=[];autosize=1;strokeColor=none;fillColor=none;fontSize=16;" parent="J-q6yY1MBjcJbUwqOQWw-74" vertex="1">
          <mxGeometry x="-5" y="55" width="60" height="70" as="geometry" />
        </mxCell>
        <mxCell id="J-q6yY1MBjcJbUwqOQWw-76" value="" style="group;fontSize=16;" parent="1" vertex="1" connectable="0">
          <mxGeometry x="-60" y="100" width="50" height="240" as="geometry" />
        </mxCell>
        <mxCell id="J-q6yY1MBjcJbUwqOQWw-1" value="" style="rounded=0;whiteSpace=wrap;html=1;container=0;fontSize=16;" parent="J-q6yY1MBjcJbUwqOQWw-76" vertex="1">
          <mxGeometry width="50" height="60" as="geometry" />
        </mxCell>
        <mxCell id="J-q6yY1MBjcJbUwqOQWw-2" value="" style="rounded=0;whiteSpace=wrap;html=1;container=0;fontSize=16;" parent="J-q6yY1MBjcJbUwqOQWw-76" vertex="1">
          <mxGeometry y="180" width="50" height="60" as="geometry" />
        </mxCell>
        <mxCell id="J-q6yY1MBjcJbUwqOQWw-3" value="" style="rounded=0;whiteSpace=wrap;html=1;container=0;fontSize=16;" parent="J-q6yY1MBjcJbUwqOQWw-76" vertex="1">
          <mxGeometry y="120" width="50" height="60" as="geometry" />
        </mxCell>
        <mxCell id="J-q6yY1MBjcJbUwqOQWw-4" value="" style="rounded=0;whiteSpace=wrap;html=1;container=0;fontSize=16;" parent="J-q6yY1MBjcJbUwqOQWw-76" vertex="1">
          <mxGeometry y="60" width="50" height="60" as="geometry" />
        </mxCell>
        <mxCell id="J-q6yY1MBjcJbUwqOQWw-159" value="null&lt;br&gt;——&lt;br&gt;0" style="rounded=0;whiteSpace=wrap;html=1;fontSize=16;" parent="J-q6yY1MBjcJbUwqOQWw-76" vertex="1">
          <mxGeometry y="180" width="50" height="60" as="geometry" />
        </mxCell>
        <mxCell id="J-q6yY1MBjcJbUwqOQWw-160" value="null&lt;br&gt;——&lt;br&gt;0" style="rounded=0;whiteSpace=wrap;html=1;fontSize=16;" parent="J-q6yY1MBjcJbUwqOQWw-76" vertex="1">
          <mxGeometry y="120" width="50" height="60" as="geometry" />
        </mxCell>
        <mxCell id="J-q6yY1MBjcJbUwqOQWw-161" value="null&lt;br&gt;——&lt;br&gt;0" style="rounded=0;whiteSpace=wrap;html=1;fontSize=16;" parent="J-q6yY1MBjcJbUwqOQWw-76" vertex="1">
          <mxGeometry y="60" width="50" height="60" as="geometry" />
        </mxCell>
        <mxCell id="J-q6yY1MBjcJbUwqOQWw-162" value="null&lt;br&gt;——&lt;br&gt;0" style="rounded=0;whiteSpace=wrap;html=1;fontSize=16;" parent="J-q6yY1MBjcJbUwqOQWw-76" vertex="1">
          <mxGeometry width="50" height="60" as="geometry" />
        </mxCell>
        <mxCell id="J-q6yY1MBjcJbUwqOQWw-77" value="" style="group;fontSize=16;" parent="1" vertex="1" connectable="0">
          <mxGeometry x="660" y="220" width="55" height="125" as="geometry" />
        </mxCell>
        <mxCell id="J-q6yY1MBjcJbUwqOQWw-13" value="" style="rounded=0;whiteSpace=wrap;html=1;fontSize=16;" parent="J-q6yY1MBjcJbUwqOQWw-77" vertex="1">
          <mxGeometry y="60" width="50" height="60" as="geometry" />
        </mxCell>
        <mxCell id="J-q6yY1MBjcJbUwqOQWw-14" value="" style="rounded=0;whiteSpace=wrap;html=1;fontSize=16;" parent="J-q6yY1MBjcJbUwqOQWw-77" vertex="1">
          <mxGeometry width="50" height="60" as="geometry" />
        </mxCell>
        <mxCell id="J-q6yY1MBjcJbUwqOQWw-95" value="19&lt;br style=&quot;font-size: 16px;&quot;&gt;——&lt;br style=&quot;font-size: 16px;&quot;&gt;1" style="text;html=1;align=center;verticalAlign=middle;resizable=0;points=[];autosize=1;strokeColor=none;fillColor=none;fontSize=16;" parent="J-q6yY1MBjcJbUwqOQWw-77" vertex="1">
          <mxGeometry x="-5" y="-5" width="60" height="70" as="geometry" />
        </mxCell>
        <mxCell id="J-q6yY1MBjcJbUwqOQWw-96" value="19&lt;br style=&quot;font-size: 16px;&quot;&gt;——&lt;br style=&quot;font-size: 16px;&quot;&gt;1" style="text;html=1;align=center;verticalAlign=middle;resizable=0;points=[];autosize=1;strokeColor=none;fillColor=none;fontSize=16;" parent="J-q6yY1MBjcJbUwqOQWw-77" vertex="1">
          <mxGeometry x="-5" y="55" width="60" height="70" as="geometry" />
        </mxCell>
        <mxCell id="J-q6yY1MBjcJbUwqOQWw-78" value="" style="group;fontSize=16;" parent="1" vertex="1" connectable="0">
          <mxGeometry x="1220" y="100" width="55" height="245" as="geometry" />
        </mxCell>
        <mxCell id="J-q6yY1MBjcJbUwqOQWw-22" value="" style="rounded=0;whiteSpace=wrap;html=1;fontSize=16;" parent="J-q6yY1MBjcJbUwqOQWw-78" vertex="1">
          <mxGeometry width="50" height="60" as="geometry" />
        </mxCell>
        <mxCell id="J-q6yY1MBjcJbUwqOQWw-23" value="" style="rounded=0;whiteSpace=wrap;html=1;fontSize=16;" parent="J-q6yY1MBjcJbUwqOQWw-78" vertex="1">
          <mxGeometry y="180" width="50" height="60" as="geometry" />
        </mxCell>
        <mxCell id="J-q6yY1MBjcJbUwqOQWw-24" value="" style="rounded=0;whiteSpace=wrap;html=1;fontSize=16;" parent="J-q6yY1MBjcJbUwqOQWw-78" vertex="1">
          <mxGeometry y="120" width="50" height="60" as="geometry" />
        </mxCell>
        <mxCell id="J-q6yY1MBjcJbUwqOQWw-25" value="" style="rounded=0;whiteSpace=wrap;html=1;fontSize=16;" parent="J-q6yY1MBjcJbUwqOQWw-78" vertex="1">
          <mxGeometry y="60" width="50" height="60" as="geometry" />
        </mxCell>
        <mxCell id="J-q6yY1MBjcJbUwqOQWw-101" value="35&lt;br style=&quot;font-size: 16px;&quot;&gt;——&lt;br style=&quot;font-size: 16px;&quot;&gt;1" style="text;html=1;align=center;verticalAlign=middle;resizable=0;points=[];autosize=1;strokeColor=none;fillColor=none;fontSize=16;" parent="J-q6yY1MBjcJbUwqOQWw-78" vertex="1">
          <mxGeometry x="-5" y="175" width="60" height="70" as="geometry" />
        </mxCell>
        <mxCell id="J-q6yY1MBjcJbUwqOQWw-102" value="35&lt;br style=&quot;font-size: 16px;&quot;&gt;——&lt;br style=&quot;font-size: 16px;&quot;&gt;7" style="text;html=1;align=center;verticalAlign=middle;resizable=0;points=[];autosize=1;strokeColor=none;fillColor=none;fontSize=16;" parent="J-q6yY1MBjcJbUwqOQWw-78" vertex="1">
          <mxGeometry x="-5" y="115" width="60" height="70" as="geometry" />
        </mxCell>
        <mxCell id="J-q6yY1MBjcJbUwqOQWw-103" value="35&lt;br style=&quot;font-size: 16px;&quot;&gt;——&lt;br style=&quot;font-size: 16px;&quot;&gt;14" style="text;html=1;align=center;verticalAlign=middle;resizable=0;points=[];autosize=1;strokeColor=none;fillColor=none;fontSize=16;" parent="J-q6yY1MBjcJbUwqOQWw-78" vertex="1">
          <mxGeometry x="-5" y="55" width="60" height="70" as="geometry" />
        </mxCell>
        <mxCell id="J-q6yY1MBjcJbUwqOQWw-104" value="35&lt;br style=&quot;font-size: 16px;&quot;&gt;——&lt;br style=&quot;font-size: 16px;&quot;&gt;16" style="text;html=1;align=center;verticalAlign=middle;resizable=0;points=[];autosize=1;strokeColor=none;fillColor=none;fontSize=16;" parent="J-q6yY1MBjcJbUwqOQWw-78" vertex="1">
          <mxGeometry x="-5" y="-5" width="60" height="70" as="geometry" />
        </mxCell>
        <mxCell id="J-q6yY1MBjcJbUwqOQWw-79" value="" style="group;fontSize=16;" parent="1" vertex="1" connectable="0">
          <mxGeometry x="1300" y="220" width="55" height="125" as="geometry" />
        </mxCell>
        <mxCell id="J-q6yY1MBjcJbUwqOQWw-27" value="" style="rounded=0;whiteSpace=wrap;html=1;fontSize=16;" parent="J-q6yY1MBjcJbUwqOQWw-79" vertex="1">
          <mxGeometry y="60" width="50" height="60" as="geometry" />
        </mxCell>
        <mxCell id="J-q6yY1MBjcJbUwqOQWw-28" value="" style="rounded=0;whiteSpace=wrap;html=1;fontSize=16;" parent="J-q6yY1MBjcJbUwqOQWw-79" vertex="1">
          <mxGeometry width="50" height="60" as="geometry" />
        </mxCell>
        <mxCell id="J-q6yY1MBjcJbUwqOQWw-105" value="38&lt;br style=&quot;font-size: 16px;&quot;&gt;——&lt;br style=&quot;font-size: 16px;&quot;&gt;1" style="text;html=1;align=center;verticalAlign=middle;resizable=0;points=[];autosize=1;strokeColor=none;fillColor=none;fontSize=16;" parent="J-q6yY1MBjcJbUwqOQWw-79" vertex="1">
          <mxGeometry x="-5" y="55" width="60" height="70" as="geometry" />
        </mxCell>
        <mxCell id="J-q6yY1MBjcJbUwqOQWw-106" value="38&lt;br style=&quot;font-size: 16px;&quot;&gt;——&lt;br style=&quot;font-size: 16px;&quot;&gt;1" style="text;html=1;align=center;verticalAlign=middle;resizable=0;points=[];autosize=1;strokeColor=none;fillColor=none;fontSize=16;" parent="J-q6yY1MBjcJbUwqOQWw-79" vertex="1">
          <mxGeometry x="-5" y="-5" width="60" height="70" as="geometry" />
        </mxCell>
        <mxCell id="J-q6yY1MBjcJbUwqOQWw-80" value="" style="group;fontSize=16;" parent="1" vertex="1" connectable="0">
          <mxGeometry x="1620" y="100" width="50" height="240" as="geometry" />
        </mxCell>
        <mxCell id="J-q6yY1MBjcJbUwqOQWw-63" value="" style="rounded=0;whiteSpace=wrap;html=1;fontSize=16;" parent="J-q6yY1MBjcJbUwqOQWw-80" vertex="1">
          <mxGeometry width="50" height="60" as="geometry" />
        </mxCell>
        <mxCell id="J-q6yY1MBjcJbUwqOQWw-64" value="" style="rounded=0;whiteSpace=wrap;html=1;fontSize=16;" parent="J-q6yY1MBjcJbUwqOQWw-80" vertex="1">
          <mxGeometry y="180" width="50" height="60" as="geometry" />
        </mxCell>
        <mxCell id="J-q6yY1MBjcJbUwqOQWw-65" value="" style="rounded=0;whiteSpace=wrap;html=1;fontSize=16;" parent="J-q6yY1MBjcJbUwqOQWw-80" vertex="1">
          <mxGeometry y="120" width="50" height="60" as="geometry" />
        </mxCell>
        <mxCell id="J-q6yY1MBjcJbUwqOQWw-66" value="" style="rounded=0;whiteSpace=wrap;html=1;fontSize=16;" parent="J-q6yY1MBjcJbUwqOQWw-80" vertex="1">
          <mxGeometry y="60" width="50" height="60" as="geometry" />
        </mxCell>
        <mxCell id="J-q6yY1MBjcJbUwqOQWw-109" value="null" style="text;html=1;align=center;verticalAlign=middle;resizable=0;points=[];autosize=1;strokeColor=none;fillColor=none;fontSize=16;" parent="J-q6yY1MBjcJbUwqOQWw-80" vertex="1">
          <mxGeometry y="195" width="50" height="30" as="geometry" />
        </mxCell>
        <mxCell id="J-q6yY1MBjcJbUwqOQWw-110" value="null" style="text;html=1;align=center;verticalAlign=middle;resizable=0;points=[];autosize=1;strokeColor=none;fillColor=none;fontSize=16;" parent="J-q6yY1MBjcJbUwqOQWw-80" vertex="1">
          <mxGeometry y="135" width="50" height="30" as="geometry" />
        </mxCell>
        <mxCell id="J-q6yY1MBjcJbUwqOQWw-111" value="null" style="text;html=1;align=center;verticalAlign=middle;resizable=0;points=[];autosize=1;strokeColor=none;fillColor=none;fontSize=16;" parent="J-q6yY1MBjcJbUwqOQWw-80" vertex="1">
          <mxGeometry y="75" width="50" height="30" as="geometry" />
        </mxCell>
        <mxCell id="J-q6yY1MBjcJbUwqOQWw-112" value="null" style="text;html=1;align=center;verticalAlign=middle;resizable=0;points=[];autosize=1;strokeColor=none;fillColor=none;fontSize=16;" parent="J-q6yY1MBjcJbUwqOQWw-80" vertex="1">
          <mxGeometry y="15" width="50" height="30" as="geometry" />
        </mxCell>
        <mxCell id="J-q6yY1MBjcJbUwqOQWw-82" style="edgeStyle=orthogonalEdgeStyle;rounded=0;orthogonalLoop=1;jettySize=auto;html=1;entryX=0;entryY=0.5;entryDx=0;entryDy=0;fontSize=16;" parent="1" source="J-q6yY1MBjcJbUwqOQWw-28" target="J-q6yY1MBjcJbUwqOQWw-65" edge="1">
          <mxGeometry relative="1" as="geometry" />
        </mxCell>
        <mxCell id="J-q6yY1MBjcJbUwqOQWw-83" style="edgeStyle=orthogonalEdgeStyle;rounded=0;orthogonalLoop=1;jettySize=auto;html=1;exitX=1;exitY=0.5;exitDx=0;exitDy=0;entryX=0;entryY=0.5;entryDx=0;entryDy=0;fontSize=16;" parent="1" source="J-q6yY1MBjcJbUwqOQWw-25" target="J-q6yY1MBjcJbUwqOQWw-66" edge="1">
          <mxGeometry relative="1" as="geometry" />
        </mxCell>
        <mxCell id="J-q6yY1MBjcJbUwqOQWw-84" style="edgeStyle=orthogonalEdgeStyle;rounded=0;orthogonalLoop=1;jettySize=auto;html=1;exitX=1;exitY=0.5;exitDx=0;exitDy=0;entryX=0;entryY=0.5;entryDx=0;entryDy=0;fontSize=16;" parent="1" source="J-q6yY1MBjcJbUwqOQWw-22" target="J-q6yY1MBjcJbUwqOQWw-63" edge="1">
          <mxGeometry relative="1" as="geometry" />
        </mxCell>
        <mxCell id="J-q6yY1MBjcJbUwqOQWw-97" value="21&lt;br style=&quot;font-size: 16px;&quot;&gt;——&lt;br style=&quot;font-size: 16px;&quot;&gt;3" style="text;html=1;align=center;verticalAlign=middle;resizable=0;points=[];autosize=1;strokeColor=none;fillColor=none;fontSize=16;" parent="1" vertex="1">
          <mxGeometry x="895" y="275" width="60" height="70" as="geometry" />
        </mxCell>
        <mxCell id="J-q6yY1MBjcJbUwqOQWw-98" value="26&lt;br style=&quot;font-size: 16px;&quot;&gt;——&lt;br style=&quot;font-size: 16px;&quot;&gt;1" style="text;html=1;align=center;verticalAlign=middle;resizable=0;points=[];autosize=1;strokeColor=none;fillColor=none;fontSize=16;" parent="1" vertex="1">
          <mxGeometry x="975" y="275" width="60" height="70" as="geometry" />
        </mxCell>
        <mxCell id="J-q6yY1MBjcJbUwqOQWw-99" value="30&lt;br style=&quot;font-size: 16px;&quot;&gt;——&lt;br style=&quot;font-size: 16px;&quot;&gt;2" style="text;html=1;align=center;verticalAlign=middle;resizable=0;points=[];autosize=1;strokeColor=none;fillColor=none;fontSize=16;" parent="1" vertex="1">
          <mxGeometry x="1135" y="275" width="60" height="70" as="geometry" />
        </mxCell>
        <mxCell id="J-q6yY1MBjcJbUwqOQWw-100" value="10&lt;br style=&quot;font-size: 16px;&quot;&gt;——&lt;br style=&quot;font-size: 16px;&quot;&gt;1" style="text;html=1;align=center;verticalAlign=middle;resizable=0;points=[];autosize=1;strokeColor=none;fillColor=none;fontSize=16;" parent="1" vertex="1">
          <mxGeometry x="175" y="275" width="60" height="70" as="geometry" />
        </mxCell>
        <mxCell id="J-q6yY1MBjcJbUwqOQWw-107" value="41&lt;br style=&quot;font-size: 16px;&quot;&gt;——&lt;br style=&quot;font-size: 16px;&quot;&gt;2" style="text;html=1;align=center;verticalAlign=middle;resizable=0;points=[];autosize=1;strokeColor=none;fillColor=none;fontSize=16;" parent="1" vertex="1">
          <mxGeometry x="1455" y="275" width="60" height="70" as="geometry" />
        </mxCell>
        <mxCell id="J-q6yY1MBjcJbUwqOQWw-164" value="" style="edgeStyle=orthogonalEdgeStyle;rounded=0;orthogonalLoop=1;jettySize=auto;html=1;fontSize=16;" parent="1" source="J-q6yY1MBjcJbUwqOQWw-108" edge="1">
          <mxGeometry relative="1" as="geometry">
            <mxPoint x="1620" y="310" as="targetPoint" />
          </mxGeometry>
        </mxCell>
        <mxCell id="J-q6yY1MBjcJbUwqOQWw-108" value="47&lt;br style=&quot;font-size: 16px;&quot;&gt;——&lt;br style=&quot;font-size: 16px;&quot;&gt;1" style="text;html=1;align=center;verticalAlign=middle;resizable=0;points=[];autosize=1;strokeColor=none;fillColor=none;fontSize=16;" parent="1" vertex="1">
          <mxGeometry x="1535" y="275" width="60" height="70" as="geometry" />
        </mxCell>
        <mxCell id="J-q6yY1MBjcJbUwqOQWw-135" style="edgeStyle=orthogonalEdgeStyle;rounded=0;orthogonalLoop=1;jettySize=auto;html=1;exitX=1;exitY=0.5;exitDx=0;exitDy=0;entryX=0;entryY=0.5;entryDx=0;entryDy=0;fontSize=16;" parent="1" source="J-q6yY1MBjcJbUwqOQWw-113" target="J-q6yY1MBjcJbUwqOQWw-115" edge="1">
          <mxGeometry relative="1" as="geometry" />
        </mxCell>
        <mxCell id="J-q6yY1MBjcJbUwqOQWw-113" value="7" style="rounded=0;whiteSpace=wrap;html=1;fontSize=16;" parent="1" vertex="1">
          <mxGeometry x="100" y="340" width="50" height="60" as="geometry" />
        </mxCell>
        <mxCell id="J-q6yY1MBjcJbUwqOQWw-134" style="edgeStyle=orthogonalEdgeStyle;rounded=0;orthogonalLoop=1;jettySize=auto;html=1;exitX=1;exitY=0.5;exitDx=0;exitDy=0;entryX=0;entryY=0.5;entryDx=0;entryDy=0;fontSize=16;" parent="1" source="J-q6yY1MBjcJbUwqOQWw-114" target="J-q6yY1MBjcJbUwqOQWw-113" edge="1">
          <mxGeometry relative="1" as="geometry" />
        </mxCell>
        <mxCell id="J-q6yY1MBjcJbUwqOQWw-114" value="3" style="rounded=0;whiteSpace=wrap;html=1;fontSize=16;" parent="1" vertex="1">
          <mxGeometry x="20" y="340" width="50" height="60" as="geometry" />
        </mxCell>
        <mxCell id="J-q6yY1MBjcJbUwqOQWw-136" style="edgeStyle=orthogonalEdgeStyle;rounded=0;orthogonalLoop=1;jettySize=auto;html=1;exitX=1;exitY=0.5;exitDx=0;exitDy=0;entryX=0;entryY=0.5;entryDx=0;entryDy=0;fontSize=16;" parent="1" source="J-q6yY1MBjcJbUwqOQWw-115" target="J-q6yY1MBjcJbUwqOQWw-127" edge="1">
          <mxGeometry relative="1" as="geometry" />
        </mxCell>
        <mxCell id="J-q6yY1MBjcJbUwqOQWw-115" value="10" style="rounded=0;whiteSpace=wrap;html=1;fontSize=16;" parent="1" vertex="1">
          <mxGeometry x="180" y="340" width="50" height="60" as="geometry" />
        </mxCell>
        <mxCell id="J-q6yY1MBjcJbUwqOQWw-138" style="edgeStyle=orthogonalEdgeStyle;rounded=0;orthogonalLoop=1;jettySize=auto;html=1;exitX=1;exitY=0.5;exitDx=0;exitDy=0;entryX=0;entryY=0.5;entryDx=0;entryDy=0;fontSize=16;" parent="1" source="J-q6yY1MBjcJbUwqOQWw-116" target="J-q6yY1MBjcJbUwqOQWw-128" edge="1">
          <mxGeometry relative="1" as="geometry" />
        </mxCell>
        <mxCell id="J-q6yY1MBjcJbUwqOQWw-116" value="14" style="rounded=0;whiteSpace=wrap;html=1;fontSize=16;" parent="1" vertex="1">
          <mxGeometry x="340" y="340" width="50" height="60" as="geometry" />
        </mxCell>
        <mxCell id="J-q6yY1MBjcJbUwqOQWw-140" style="edgeStyle=orthogonalEdgeStyle;rounded=0;orthogonalLoop=1;jettySize=auto;html=1;exitX=1;exitY=0.5;exitDx=0;exitDy=0;entryX=0;entryY=0.5;entryDx=0;entryDy=0;fontSize=16;" parent="1" source="J-q6yY1MBjcJbUwqOQWw-117" target="J-q6yY1MBjcJbUwqOQWw-118" edge="1">
          <mxGeometry relative="1" as="geometry" />
        </mxCell>
        <mxCell id="J-q6yY1MBjcJbUwqOQWw-117" value="16" style="rounded=0;whiteSpace=wrap;html=1;fontSize=16;" parent="1" vertex="1">
          <mxGeometry x="500" y="340" width="50" height="60" as="geometry" />
        </mxCell>
        <mxCell id="J-q6yY1MBjcJbUwqOQWw-141" style="edgeStyle=orthogonalEdgeStyle;rounded=0;orthogonalLoop=1;jettySize=auto;html=1;exitX=1;exitY=0.5;exitDx=0;exitDy=0;entryX=0;entryY=0.5;entryDx=0;entryDy=0;fontSize=16;" parent="1" source="J-q6yY1MBjcJbUwqOQWw-118" target="J-q6yY1MBjcJbUwqOQWw-119" edge="1">
          <mxGeometry relative="1" as="geometry" />
        </mxCell>
        <mxCell id="J-q6yY1MBjcJbUwqOQWw-118" value="17" style="rounded=0;whiteSpace=wrap;html=1;fontSize=16;" parent="1" vertex="1">
          <mxGeometry x="580" y="340" width="50" height="60" as="geometry" />
        </mxCell>
        <mxCell id="J-q6yY1MBjcJbUwqOQWw-142" style="edgeStyle=orthogonalEdgeStyle;rounded=0;orthogonalLoop=1;jettySize=auto;html=1;exitX=1;exitY=0.5;exitDx=0;exitDy=0;entryX=0;entryY=0.5;entryDx=0;entryDy=0;fontSize=16;" parent="1" source="J-q6yY1MBjcJbUwqOQWw-119" target="J-q6yY1MBjcJbUwqOQWw-129" edge="1">
          <mxGeometry relative="1" as="geometry" />
        </mxCell>
        <mxCell id="J-q6yY1MBjcJbUwqOQWw-119" value="19" style="rounded=0;whiteSpace=wrap;html=1;fontSize=16;" parent="1" vertex="1">
          <mxGeometry x="660" y="340" width="50" height="60" as="geometry" />
        </mxCell>
        <mxCell id="J-q6yY1MBjcJbUwqOQWw-145" style="edgeStyle=orthogonalEdgeStyle;rounded=0;orthogonalLoop=1;jettySize=auto;html=1;exitX=1;exitY=0.5;exitDx=0;exitDy=0;entryX=0;entryY=0.5;entryDx=0;entryDy=0;fontSize=16;" parent="1" source="J-q6yY1MBjcJbUwqOQWw-120" target="J-q6yY1MBjcJbUwqOQWw-121" edge="1">
          <mxGeometry relative="1" as="geometry" />
        </mxCell>
        <mxCell id="J-q6yY1MBjcJbUwqOQWw-120" value="21" style="rounded=0;whiteSpace=wrap;html=1;fontSize=16;" parent="1" vertex="1">
          <mxGeometry x="900" y="340" width="50" height="60" as="geometry" />
        </mxCell>
        <mxCell id="J-q6yY1MBjcJbUwqOQWw-146" style="edgeStyle=orthogonalEdgeStyle;rounded=0;orthogonalLoop=1;jettySize=auto;html=1;exitX=1;exitY=0.5;exitDx=0;exitDy=0;entryX=0;entryY=0.5;entryDx=0;entryDy=0;fontSize=16;" parent="1" source="J-q6yY1MBjcJbUwqOQWw-121" target="J-q6yY1MBjcJbUwqOQWw-132" edge="1">
          <mxGeometry relative="1" as="geometry" />
        </mxCell>
        <mxCell id="J-q6yY1MBjcJbUwqOQWw-121" value="26" style="rounded=0;whiteSpace=wrap;html=1;fontSize=16;" parent="1" vertex="1">
          <mxGeometry x="980" y="340" width="50" height="60" as="geometry" />
        </mxCell>
        <mxCell id="J-q6yY1MBjcJbUwqOQWw-148" style="edgeStyle=orthogonalEdgeStyle;rounded=0;orthogonalLoop=1;jettySize=auto;html=1;exitX=1;exitY=0.5;exitDx=0;exitDy=0;entryX=0;entryY=0.5;entryDx=0;entryDy=0;fontSize=16;" parent="1" source="J-q6yY1MBjcJbUwqOQWw-122" target="J-q6yY1MBjcJbUwqOQWw-123" edge="1">
          <mxGeometry relative="1" as="geometry" />
        </mxCell>
        <mxCell id="J-q6yY1MBjcJbUwqOQWw-122" value="30" style="rounded=0;whiteSpace=wrap;html=1;fontSize=16;" parent="1" vertex="1">
          <mxGeometry x="1140" y="340" width="50" height="60" as="geometry" />
        </mxCell>
        <mxCell id="J-q6yY1MBjcJbUwqOQWw-149" style="edgeStyle=orthogonalEdgeStyle;rounded=0;orthogonalLoop=1;jettySize=auto;html=1;exitX=1;exitY=0.5;exitDx=0;exitDy=0;entryX=0;entryY=0.5;entryDx=0;entryDy=0;fontSize=16;" parent="1" source="J-q6yY1MBjcJbUwqOQWw-123" target="J-q6yY1MBjcJbUwqOQWw-124" edge="1">
          <mxGeometry relative="1" as="geometry" />
        </mxCell>
        <mxCell id="J-q6yY1MBjcJbUwqOQWw-123" value="35" style="rounded=0;whiteSpace=wrap;html=1;fontSize=16;" parent="1" vertex="1">
          <mxGeometry x="1220" y="340" width="50" height="60" as="geometry" />
        </mxCell>
        <mxCell id="J-q6yY1MBjcJbUwqOQWw-150" style="edgeStyle=orthogonalEdgeStyle;rounded=0;orthogonalLoop=1;jettySize=auto;html=1;exitX=1;exitY=0.5;exitDx=0;exitDy=0;entryX=0;entryY=0.5;entryDx=0;entryDy=0;fontSize=16;" parent="1" source="J-q6yY1MBjcJbUwqOQWw-124" target="J-q6yY1MBjcJbUwqOQWw-133" edge="1">
          <mxGeometry relative="1" as="geometry" />
        </mxCell>
        <mxCell id="J-q6yY1MBjcJbUwqOQWw-124" value="38" style="rounded=0;whiteSpace=wrap;html=1;fontSize=16;" parent="1" vertex="1">
          <mxGeometry x="1300" y="340" width="50" height="60" as="geometry" />
        </mxCell>
        <mxCell id="J-q6yY1MBjcJbUwqOQWw-152" style="edgeStyle=orthogonalEdgeStyle;rounded=0;orthogonalLoop=1;jettySize=auto;html=1;exitX=1;exitY=0.5;exitDx=0;exitDy=0;entryX=0;entryY=0.5;entryDx=0;entryDy=0;fontSize=16;" parent="1" source="J-q6yY1MBjcJbUwqOQWw-125" target="J-q6yY1MBjcJbUwqOQWw-126" edge="1">
          <mxGeometry relative="1" as="geometry" />
        </mxCell>
        <mxCell id="J-q6yY1MBjcJbUwqOQWw-125" value="41" style="rounded=0;whiteSpace=wrap;html=1;fontSize=16;" parent="1" vertex="1">
          <mxGeometry x="1460" y="340" width="50" height="60" as="geometry" />
        </mxCell>
        <mxCell id="J-q6yY1MBjcJbUwqOQWw-169" style="edgeStyle=orthogonalEdgeStyle;rounded=0;orthogonalLoop=1;jettySize=auto;html=1;exitX=1;exitY=0.5;exitDx=0;exitDy=0;entryX=0;entryY=0.5;entryDx=0;entryDy=0;fontSize=16;" parent="1" source="J-q6yY1MBjcJbUwqOQWw-126" target="J-q6yY1MBjcJbUwqOQWw-168" edge="1">
          <mxGeometry relative="1" as="geometry" />
        </mxCell>
        <mxCell id="J-q6yY1MBjcJbUwqOQWw-126" value="47" style="rounded=0;whiteSpace=wrap;html=1;fontSize=16;" parent="1" vertex="1">
          <mxGeometry x="1540" y="340" width="50" height="60" as="geometry" />
        </mxCell>
        <mxCell id="J-q6yY1MBjcJbUwqOQWw-137" style="edgeStyle=orthogonalEdgeStyle;rounded=0;orthogonalLoop=1;jettySize=auto;html=1;exitX=1;exitY=0.5;exitDx=0;exitDy=0;entryX=0;entryY=0.5;entryDx=0;entryDy=0;fontSize=16;" parent="1" source="J-q6yY1MBjcJbUwqOQWw-127" target="J-q6yY1MBjcJbUwqOQWw-116" edge="1">
          <mxGeometry relative="1" as="geometry" />
        </mxCell>
        <mxCell id="J-q6yY1MBjcJbUwqOQWw-127" value="12" style="rounded=0;whiteSpace=wrap;html=1;fontSize=16;" parent="1" vertex="1">
          <mxGeometry x="260" y="340" width="50" height="60" as="geometry" />
        </mxCell>
        <mxCell id="J-q6yY1MBjcJbUwqOQWw-139" style="edgeStyle=orthogonalEdgeStyle;rounded=0;orthogonalLoop=1;jettySize=auto;html=1;exitX=1;exitY=0.5;exitDx=0;exitDy=0;entryX=0;entryY=0.5;entryDx=0;entryDy=0;fontSize=16;" parent="1" source="J-q6yY1MBjcJbUwqOQWw-128" target="J-q6yY1MBjcJbUwqOQWw-117" edge="1">
          <mxGeometry relative="1" as="geometry" />
        </mxCell>
        <mxCell id="J-q6yY1MBjcJbUwqOQWw-128" value="14" style="rounded=0;whiteSpace=wrap;html=1;fontSize=16;" parent="1" vertex="1">
          <mxGeometry x="420" y="340" width="50" height="60" as="geometry" />
        </mxCell>
        <mxCell id="J-q6yY1MBjcJbUwqOQWw-143" style="edgeStyle=orthogonalEdgeStyle;rounded=0;orthogonalLoop=1;jettySize=auto;html=1;exitX=1;exitY=0.5;exitDx=0;exitDy=0;entryX=0;entryY=0.5;entryDx=0;entryDy=0;fontSize=16;" parent="1" source="J-q6yY1MBjcJbUwqOQWw-129" target="J-q6yY1MBjcJbUwqOQWw-130" edge="1">
          <mxGeometry relative="1" as="geometry" />
        </mxCell>
        <mxCell id="J-q6yY1MBjcJbUwqOQWw-129" value="20" style="rounded=0;whiteSpace=wrap;html=1;fontSize=16;" parent="1" vertex="1">
          <mxGeometry x="740" y="340" width="50" height="60" as="geometry" />
        </mxCell>
        <mxCell id="J-q6yY1MBjcJbUwqOQWw-144" style="edgeStyle=orthogonalEdgeStyle;rounded=0;orthogonalLoop=1;jettySize=auto;html=1;exitX=1;exitY=0.5;exitDx=0;exitDy=0;entryX=0;entryY=0.5;entryDx=0;entryDy=0;fontSize=16;" parent="1" source="J-q6yY1MBjcJbUwqOQWw-130" target="J-q6yY1MBjcJbUwqOQWw-120" edge="1">
          <mxGeometry relative="1" as="geometry" />
        </mxCell>
        <mxCell id="J-q6yY1MBjcJbUwqOQWw-130" value="21" style="rounded=0;whiteSpace=wrap;html=1;fontSize=16;" parent="1" vertex="1">
          <mxGeometry x="820" y="340" width="50" height="60" as="geometry" />
        </mxCell>
        <mxCell id="J-q6yY1MBjcJbUwqOQWw-17" value="" style="rounded=0;whiteSpace=wrap;html=1;fontSize=16;" parent="1" vertex="1">
          <mxGeometry x="500" y="280" width="50" height="60" as="geometry" />
        </mxCell>
        <mxCell id="J-q6yY1MBjcJbUwqOQWw-18" value="" style="rounded=0;whiteSpace=wrap;html=1;fontSize=16;" parent="1" vertex="1">
          <mxGeometry x="500" y="220" width="50" height="60" as="geometry" />
        </mxCell>
        <mxCell id="J-q6yY1MBjcJbUwqOQWw-91" value="16&lt;br style=&quot;font-size: 16px;&quot;&gt;——&lt;br style=&quot;font-size: 16px;&quot;&gt;2" style="text;html=1;align=center;verticalAlign=middle;resizable=0;points=[];autosize=1;strokeColor=none;fillColor=none;fontSize=16;" parent="1" vertex="1">
          <mxGeometry x="495" y="215" width="60" height="70" as="geometry" />
        </mxCell>
        <mxCell id="J-q6yY1MBjcJbUwqOQWw-92" value="16&lt;br style=&quot;font-size: 16px;&quot;&gt;——&lt;br style=&quot;font-size: 16px;&quot;&gt;2" style="text;html=1;align=center;verticalAlign=middle;resizable=0;points=[];autosize=1;strokeColor=none;fillColor=none;fontSize=16;" parent="1" vertex="1">
          <mxGeometry x="495" y="275" width="60" height="70" as="geometry" />
        </mxCell>
        <mxCell id="J-q6yY1MBjcJbUwqOQWw-147" style="edgeStyle=orthogonalEdgeStyle;rounded=0;orthogonalLoop=1;jettySize=auto;html=1;exitX=1;exitY=0.5;exitDx=0;exitDy=0;fontSize=16;" parent="1" source="J-q6yY1MBjcJbUwqOQWw-132" target="J-q6yY1MBjcJbUwqOQWw-122" edge="1">
          <mxGeometry relative="1" as="geometry" />
        </mxCell>
        <mxCell id="J-q6yY1MBjcJbUwqOQWw-132" value="28" style="rounded=0;whiteSpace=wrap;html=1;fontSize=16;" parent="1" vertex="1">
          <mxGeometry x="1060" y="340" width="50" height="60" as="geometry" />
        </mxCell>
        <mxCell id="J-q6yY1MBjcJbUwqOQWw-151" style="edgeStyle=orthogonalEdgeStyle;rounded=0;orthogonalLoop=1;jettySize=auto;html=1;exitX=1;exitY=0.5;exitDx=0;exitDy=0;entryX=0;entryY=0.5;entryDx=0;entryDy=0;fontSize=16;" parent="1" source="J-q6yY1MBjcJbUwqOQWw-133" target="J-q6yY1MBjcJbUwqOQWw-125" edge="1">
          <mxGeometry relative="1" as="geometry" />
        </mxCell>
        <mxCell id="J-q6yY1MBjcJbUwqOQWw-133" value="39" style="rounded=0;whiteSpace=wrap;html=1;fontSize=16;" parent="1" vertex="1">
          <mxGeometry x="1380" y="340" width="50" height="60" as="geometry" />
        </mxCell>
        <mxCell id="J-q6yY1MBjcJbUwqOQWw-158" style="edgeStyle=orthogonalEdgeStyle;rounded=0;orthogonalLoop=1;jettySize=auto;html=1;exitX=1;exitY=0.5;exitDx=0;exitDy=0;entryX=0;entryY=0.5;entryDx=0;entryDy=0;fontSize=16;" parent="1" source="J-q6yY1MBjcJbUwqOQWw-153" target="J-q6yY1MBjcJbUwqOQWw-114" edge="1">
          <mxGeometry relative="1" as="geometry" />
        </mxCell>
        <mxCell id="J-q6yY1MBjcJbUwqOQWw-153" value="null" style="rounded=0;whiteSpace=wrap;html=1;fontSize=16;" parent="1" vertex="1">
          <mxGeometry x="-60" y="340" width="50" height="60" as="geometry" />
        </mxCell>
        <mxCell id="J-q6yY1MBjcJbUwqOQWw-154" value="level 1" style="text;html=1;strokeColor=none;fillColor=none;align=center;verticalAlign=middle;whiteSpace=wrap;rounded=0;fontSize=16;" parent="1" vertex="1">
          <mxGeometry x="-120" y="295" width="60" height="30" as="geometry" />
        </mxCell>
        <mxCell id="J-q6yY1MBjcJbUwqOQWw-155" value="level 2" style="text;html=1;strokeColor=none;fillColor=none;align=center;verticalAlign=middle;whiteSpace=wrap;rounded=0;fontSize=16;" parent="1" vertex="1">
          <mxGeometry x="-120" y="235" width="60" height="30" as="geometry" />
        </mxCell>
        <mxCell id="J-q6yY1MBjcJbUwqOQWw-156" value="level 3" style="text;html=1;strokeColor=none;fillColor=none;align=center;verticalAlign=middle;whiteSpace=wrap;rounded=0;fontSize=16;" parent="1" vertex="1">
          <mxGeometry x="-120" y="180" width="60" height="30" as="geometry" />
        </mxCell>
        <mxCell id="J-q6yY1MBjcJbUwqOQWw-157" value="level 4" style="text;html=1;strokeColor=none;fillColor=none;align=center;verticalAlign=middle;whiteSpace=wrap;rounded=0;fontSize=16;" parent="1" vertex="1">
          <mxGeometry x="-120" y="120" width="60" height="30" as="geometry" />
        </mxCell>
        <mxCell id="J-q6yY1MBjcJbUwqOQWw-6" value="" style="rounded=0;whiteSpace=wrap;html=1;container=0;fontSize=16;" parent="1" vertex="1">
          <mxGeometry x="100" y="280" width="50" height="60" as="geometry" />
        </mxCell>
        <mxCell id="J-q6yY1MBjcJbUwqOQWw-7" value="" style="rounded=0;whiteSpace=wrap;html=1;container=0;fontSize=16;" parent="1" vertex="1">
          <mxGeometry x="100" y="220" width="50" height="60" as="geometry" />
        </mxCell>
        <mxCell id="J-q6yY1MBjcJbUwqOQWw-8" value="" style="rounded=0;whiteSpace=wrap;html=1;container=0;fontSize=16;" parent="1" vertex="1">
          <mxGeometry x="100" y="160" width="50" height="60" as="geometry" />
        </mxCell>
        <mxCell id="J-q6yY1MBjcJbUwqOQWw-68" value="7&lt;br style=&quot;font-size: 16px;&quot;&gt;——&lt;br style=&quot;font-size: 16px;&quot;&gt;2" style="text;html=1;align=center;verticalAlign=middle;resizable=0;points=[];autosize=1;strokeColor=none;fillColor=none;fontSize=16;" parent="1" vertex="1">
          <mxGeometry x="95" y="275" width="60" height="70" as="geometry" />
        </mxCell>
        <mxCell id="J-q6yY1MBjcJbUwqOQWw-163" value="" style="edgeStyle=orthogonalEdgeStyle;rounded=0;orthogonalLoop=1;jettySize=auto;html=1;fontSize=16;" parent="1" source="J-q6yY1MBjcJbUwqOQWw-85" edge="1">
          <mxGeometry relative="1" as="geometry">
            <mxPoint x="340" y="250" as="targetPoint" />
          </mxGeometry>
        </mxCell>
        <mxCell id="J-q6yY1MBjcJbUwqOQWw-85" value="7&lt;br style=&quot;font-size: 16px;&quot;&gt;——&lt;br style=&quot;font-size: 16px;&quot;&gt;2" style="text;html=1;align=center;verticalAlign=middle;resizable=0;points=[];autosize=1;strokeColor=none;fillColor=none;fontSize=16;" parent="1" vertex="1">
          <mxGeometry x="95" y="215" width="60" height="70" as="geometry" />
        </mxCell>
        <mxCell id="J-q6yY1MBjcJbUwqOQWw-86" value="7&lt;br style=&quot;font-size: 16px;&quot;&gt;——&lt;br style=&quot;font-size: 16px;&quot;&gt;2" style="text;html=1;align=center;verticalAlign=middle;resizable=0;points=[];autosize=1;strokeColor=none;fillColor=none;fontSize=16;" parent="1" vertex="1">
          <mxGeometry x="95" y="155" width="60" height="70" as="geometry" />
        </mxCell>
        <mxCell id="J-q6yY1MBjcJbUwqOQWw-165" style="edgeStyle=orthogonalEdgeStyle;rounded=0;orthogonalLoop=1;jettySize=auto;html=1;fontSize=16;" parent="1" source="J-q6yY1MBjcJbUwqOQWw-95" target="J-q6yY1MBjcJbUwqOQWw-102" edge="1">
          <mxGeometry relative="1" as="geometry" />
        </mxCell>
        <mxCell id="J-q6yY1MBjcJbUwqOQWw-166" style="edgeStyle=orthogonalEdgeStyle;rounded=0;orthogonalLoop=1;jettySize=auto;html=1;fontSize=16;" parent="1" source="J-q6yY1MBjcJbUwqOQWw-86" edge="1">
          <mxGeometry relative="1" as="geometry">
            <mxPoint x="1220" y="190" as="targetPoint" />
          </mxGeometry>
        </mxCell>
        <mxCell id="J-q6yY1MBjcJbUwqOQWw-167" style="edgeStyle=orthogonalEdgeStyle;rounded=0;orthogonalLoop=1;jettySize=auto;html=1;exitX=1;exitY=0.5;exitDx=0;exitDy=0;fontSize=16;" parent="1" source="J-q6yY1MBjcJbUwqOQWw-162" edge="1">
          <mxGeometry relative="1" as="geometry">
            <mxPoint x="1220" y="130" as="targetPoint" />
          </mxGeometry>
        </mxCell>
        <mxCell id="J-q6yY1MBjcJbUwqOQWw-168" value="null" style="rounded=0;whiteSpace=wrap;html=1;fontSize=16;" parent="1" vertex="1">
          <mxGeometry x="1620" y="340" width="50" height="60" as="geometry" />
        </mxCell>
        <mxCell id="J-q6yY1MBjcJbUwqOQWw-171" style="edgeStyle=orthogonalEdgeStyle;rounded=0;orthogonalLoop=1;jettySize=auto;html=1;exitX=0.5;exitY=1;exitDx=0;exitDy=0;" parent="1" source="J-q6yY1MBjcJbUwqOQWw-170" edge="1">
          <mxGeometry relative="1" as="geometry">
            <mxPoint x="-34.57142857142844" y="100" as="targetPoint" />
          </mxGeometry>
        </mxCell>
        <mxCell id="J-q6yY1MBjcJbUwqOQWw-170" value="&lt;font style=&quot;font-size: 16px;&quot;&gt;head&lt;/font&gt;" style="text;html=1;strokeColor=none;fillColor=none;align=center;verticalAlign=middle;whiteSpace=wrap;rounded=0;" parent="1" vertex="1">
          <mxGeometry x="-65" y="40" width="60" height="30" as="geometry" />
        </mxCell>
        <mxCell id="J-q6yY1MBjcJbUwqOQWw-172" value="&lt;font style=&quot;font-size: 16px;&quot;&gt;value&lt;/font&gt;" style="text;html=1;strokeColor=none;fillColor=none;align=center;verticalAlign=middle;whiteSpace=wrap;rounded=0;" parent="1" vertex="1">
          <mxGeometry x="1135" y="50" width="60" height="30" as="geometry" />
        </mxCell>
        <mxCell id="J-q6yY1MBjcJbUwqOQWw-173" value="&lt;font style=&quot;font-size: 16px;&quot;&gt;distance&lt;/font&gt;" style="text;html=1;strokeColor=none;fillColor=none;align=center;verticalAlign=middle;whiteSpace=wrap;rounded=0;" parent="1" vertex="1">
          <mxGeometry x="1297.5" y="50" width="60" height="30" as="geometry" />
        </mxCell>
        <mxCell id="J-q6yY1MBjcJbUwqOQWw-175" value="" style="endArrow=classic;html=1;rounded=0;exitX=0.5;exitY=1;exitDx=0;exitDy=0;" parent="1" source="J-q6yY1MBjcJbUwqOQWw-172" edge="1">
          <mxGeometry width="50" height="50" relative="1" as="geometry">
            <mxPoint x="710" y="410" as="sourcePoint" />
            <mxPoint x="1220" y="110" as="targetPoint" />
          </mxGeometry>
        </mxCell>
        <mxCell id="J-q6yY1MBjcJbUwqOQWw-177" value="" style="endArrow=classic;html=1;rounded=0;exitX=0.5;exitY=1;exitDx=0;exitDy=0;" parent="1" source="J-q6yY1MBjcJbUwqOQWw-173" edge="1">
          <mxGeometry width="50" height="50" relative="1" as="geometry">
            <mxPoint x="710" y="410" as="sourcePoint" />
            <mxPoint x="1270" y="150" as="targetPoint" />
          </mxGeometry>
        </mxCell>
        <mxCell id="J-q6yY1MBjcJbUwqOQWw-178" value="" style="endArrow=none;html=1;rounded=0;fontColor=#FFFFFF;strokeColor=#FFFFFF;" parent="1" edge="1">
          <mxGeometry width="50" height="50" relative="1" as="geometry">
            <mxPoint x="-120" y="440" as="sourcePoint" />
            <mxPoint x="1680" y="440" as="targetPoint" />
          </mxGeometry>
        </mxCell>
        <mxCell id="J-q6yY1MBjcJbUwqOQWw-179" value="" style="endArrow=none;html=1;rounded=0;strokeColor=#FFFFFF;" parent="1" edge="1">
          <mxGeometry width="50" height="50" relative="1" as="geometry">
            <mxPoint x="1682.857142857143" y="440" as="sourcePoint" />
            <mxPoint x="1680" y="40" as="targetPoint" />
          </mxGeometry>
        </mxCell>
        <mxCell id="fiorHoXb6eRYcX3km6B3-1" value="数据链表" style="text;html=1;strokeColor=none;fillColor=none;align=center;verticalAlign=middle;whiteSpace=wrap;rounded=0;" vertex="1" parent="1">
          <mxGeometry x="-120" y="355" width="60" height="30" as="geometry" />
        </mxCell>
        <mxCell id="fiorHoXb6eRYcX3km6B3-2" value="序号" style="text;html=1;strokeColor=none;fillColor=none;align=center;verticalAlign=middle;whiteSpace=wrap;rounded=0;" vertex="1" parent="1">
          <mxGeometry x="-120" y="415" width="60" height="30" as="geometry" />
        </mxCell>
      </root>
    </mxGraphModel>
  </diagram>
</mxfile>
